# xmcd
#
# Track frame offsets: 
#        150
#        24360
#        47172
#        73065
#        94605
#        116535
#        139747
#        161545
#        183085
#        208297
#
# Disc length: 3063 seconds
#
# Revision: 5
# Processed by: cddbd v1.5.2PL0 Copyright (c) Steve Scherf et al.
# Submitted via: ExactAudioCopy v1.3
#
DISCID=860bf50a
DTITLE=Alejandro Sanz - Mas
DYEAR=1997
DGENRE=
TTITLE0=Y, si fuera ella
TTITLE1=Ese ultimo momento
TTITLE2=Corazon partio
TTITLE3=Siempre es de noche
TTITLE4=La margarita dijo no
TTITLE5=Hoy que no estas
TTITLE6=Un charquito de estrellas
TTITLE7=Amiga mia
TTITLE8=Si hay dios...
TTITLE9=Aquello que me diste
EXTD=
EXTT0=
EXTT1=
EXTT2=
EXTT3=
EXTT4=
EXTT5=
EXTT6=
EXTT7=
EXTT8=
EXTT9=
PLAYORDER=
